<?xml version="1.0" encoding="utf-8"?>
<!-- Generator: Adobe Illustrator 25.2.1, SVG Export Plug-In . SVG Version: 6.00 Build 0)  -->
<svg version="1.1" id="Layer_1" xmlns="http://www.w3.org/2000/svg" xmlns:xlink="http://www.w3.org/1999/xlink" x="0px" y="0px"
	 viewBox="0 0 1141 1140" style="enable-background:new 0 0 1141 1140;" xml:space="preserve">
<style type="text/css">
	.st0{fill:#7D9FD2;}
	.st1{fill:#9DCC69;}
	.st2{fill:#E9B349;}
	.st3{fill:#DE543B;}
</style>
<polygon class="st0" points="570.46,-5 279.89,-5 570.46,285.57 861.03,-5 "/>
<polygon class="st0" points="572.01,1141.01 286.72,1141.01 572.01,855.71 857.31,1141.01 "/>
<polygon class="st1" points="0.25,283.9 0.25,571.26 0.25,856.55 285.54,570.42 "/>
<polygon class="st2" points="286.72,-0.16 0.25,-0.16 286.52,285.15 571.62,570.47 572.01,285.13 "/>
<polygon class="st3" points="286.52,855.71 0.25,1141.01 286.72,1141.01 572.01,855.71 571.62,570.42 "/>
<polygon class="st3" points="286.72,285.13 0.25,-0.16 0.25,283.95 1.48,285.13 285.54,570.42 571.62,570.42 "/>
<polygon class="st2" points="285.54,570.42 1.04,855.71 0.25,856.55 0.25,1141.05 286.13,855.71 571.62,570.42 "/>
<polygon class="st0" points="570.83,1141.01 856.12,1141.01 570.83,855.71 285.54,1141.01 "/>
<g>
	<polygon class="st1" points="1142.6,857.42 1135.77,850.2 1137.48,304.96 1142.6,304.96 	"/>
	<polygon class="st1" points="1141.81,857.15 1142.21,857.58 1142.6,283.65 855.93,570.47 	"/>
</g>
<polygon class="st2" points="856.12,1141.01 1142.6,1141.01 856.32,855.71 571.62,570.42 570.83,855.73 "/>
<polygon class="st3" points="856.32,285.15 1142.6,-0.16 856.12,-0.16 570.83,285.15 571.62,570.42 "/>
<polygon class="st3" points="1142.6,857.15 857.31,570.42 856.96,570.42 571.62,570.42 854.75,855.74 1142.6,1141.01 
	1142.21,857.51 "/>
<g>
	<polygon class="st2" points="857.31,570.42 1142.6,283.8 1141.6,0.83 855.53,285.15 571.62,570.42 	"/>
	<polygon class="st2" points="1141.29,282.47 1142.6,282.47 1142.6,-0.16 1140.07,2.35 	"/>
</g>
</svg>
